# xmcd
#
# Track frame offsets: 
#        150
#        11980
#        26535
#        40482
#        53450
#        66115
#        79042
#        92642
#        102855
#        113705
#        125152
#        137000
#
# Disc length: 1984 seconds
#
# Revision: 2
# Processed by: cddbd v1.5.1PL2 Copyright (c) Steve Scherf et al.
# Submitted via: ExactAudioCopy v0.90b4
#
DISCID=9b07be0c
DTITLE=Ernest Tubb - The Best Of Ernest Tubb - The Millennium Collecti
DTITLE=on
DYEAR=1900
DGENRE=Country
TTITLE0=Walking The Floor Over You
TTITLE1=It's Been So Long Darling
TTITLE2=Rainbow At Midnight
TTITLE3=Drivin' Nails In My Coffin
TTITLE4=Have You Ever Been Lonely (Have You Ever Been Blue)?
TTITLE5=Slippin' Around
TTITLE6=Driftwood On The River
TTITLE7=Two Glasses Joe
TTITLE8=Half A Mind
TTITLE9=Thanks A Lot
TTITLE10=Waltz Across Texas
TTITLE11=Sweet Thang
EXTD=
EXTT0=
EXTT1=
EXTT2=
EXTT3=
EXTT4=
EXTT5=
EXTT6=
EXTT7=
EXTT8=
EXTT9=
EXTT10=
EXTT11=
PLAYORDER=
